<svg width="40" height="40" viewBox="0 0 40 40" fill="none" xmlns="http://www.w3.org/2000/svg">
<path d="M26.3266 6.17351C26.5014 6.3477 26.6401 6.55468 26.7347 6.78259C26.8293 7.0105 26.878 7.25485 26.878 7.50163C26.878 7.74841 26.8293 7.99275 26.7347 8.22066C26.6401 8.44857 26.5014 8.65556 26.3266 8.82976L15.1563 20.0001L26.3266 31.1735C26.6788 31.5257 26.8767 32.0035 26.8767 32.5016C26.8767 32.9998 26.6788 33.4775 26.3266 33.8298C25.9743 34.182 25.4966 34.3799 24.9984 34.3799C24.5003 34.3799 24.0226 34.182 23.6703 33.8298L11.1703 21.3298C10.9955 21.1556 10.8568 20.9486 10.7622 20.7207C10.6675 20.4928 10.6188 20.2484 10.6188 20.0016C10.6188 19.7549 10.6675 19.5105 10.7622 19.2826C10.8568 19.0547 10.9955 18.8477 11.1703 18.6735L23.6703 6.17351C23.8445 5.99871 24.0515 5.86001 24.2794 5.76538C24.5073 5.67074 24.7517 5.62202 24.9984 5.62202C25.2452 5.62202 25.4896 5.67074 25.7175 5.76538C25.9454 5.86001 26.1524 5.99871 26.3266 6.17351Z" fill="white"/>
</svg>
