<svg width="40" height="40" viewBox="0 0 40 40" fill="none" xmlns="http://www.w3.org/2000/svg">
<path d="M13.6734 6.17351C13.4986 6.3477 13.3599 6.55468 13.2653 6.78259C13.1707 7.0105 13.122 7.25485 13.122 7.50163C13.122 7.74841 13.1707 7.99275 13.2653 8.22066C13.3599 8.44857 13.4986 8.65556 13.6734 8.82976L24.8437 20.0001L13.6734 31.1735C13.3212 31.5257 13.1233 32.0035 13.1233 32.5016C13.1233 32.9998 13.3212 33.4775 13.6734 33.8298C14.0257 34.182 14.5034 34.3799 15.0016 34.3799C15.4997 34.3799 15.9774 34.182 16.3297 33.8298L28.8297 21.3298C29.0045 21.1556 29.1432 20.9486 29.2378 20.7207C29.3325 20.4928 29.3812 20.2484 29.3812 20.0016C29.3812 19.7549 29.3325 19.5105 29.2378 19.2826C29.1432 19.0547 29.0045 18.8477 28.8297 18.6735L16.3297 6.17351C16.1555 5.99871 15.9485 5.86001 15.7206 5.76538C15.4927 5.67074 15.2483 5.62202 15.0016 5.62202C14.7548 5.62202 14.5104 5.67074 14.2825 5.76538C14.0546 5.86001 13.8476 5.99871 13.6734 6.17351Z" fill="white"/>
</svg>
