<svg width="32" height="32" viewBox="0 0 32 32" fill="none" xmlns="http://www.w3.org/2000/svg">
<g clip-path="url(#clip0_26_6122)">
<path d="M27.9151 22.4403C27.0403 17.177 24.317 13.2575 21.9494 10.9554C21.2604 10.2855 20.916 9.95055 20.1551 9.64057C19.3941 9.33057 18.74 9.33057 17.4319 9.33057H14.5586C13.2505 9.33057 12.5964 9.33057 11.8356 9.64057C11.0746 9.95055 10.7301 10.2855 10.0412 10.9554C7.67363 13.2575 4.9502 17.177 4.07536 22.4403C3.42444 26.3565 7.03709 29.3244 11.0746 29.3244H20.916C24.9534 29.3244 28.5661 26.3565 27.9151 22.4403Z" stroke="#0F110F" stroke-width="1.99937" stroke-linecap="round" stroke-linejoin="round"/>
<path d="M9.67312 5.92216C9.39813 5.52189 8.99955 4.97861 9.8229 4.85473C10.6692 4.72738 11.548 5.30671 12.4082 5.2948C13.1864 5.28404 13.5829 4.93889 14.0081 4.4461C14.456 3.92718 15.1496 2.66602 15.9957 2.66602C16.8418 2.66602 17.5353 3.92718 17.9832 4.4461C18.4085 4.93889 18.8049 5.28404 19.5831 5.2948C20.4433 5.30671 21.3221 4.72738 22.1684 4.85473C22.9917 4.97861 22.5932 5.52189 22.3182 5.92216L21.0747 7.73195C20.5429 8.50613 20.277 8.89323 19.7203 9.11192C19.1639 9.33059 18.4446 9.33059 17.0063 9.33059H14.985C13.5467 9.33059 12.8275 9.33059 12.2709 9.11192C11.7143 8.89323 11.4484 8.50613 10.9165 7.73195L9.67312 5.92216Z" stroke="#0F110F" stroke-width="1.99937" stroke-linejoin="round"/>
<path d="M18.1626 17.2193C17.8744 16.1556 16.4077 15.1956 14.647 15.9138C12.8864 16.6318 12.6067 18.9424 15.2699 19.1879C16.4735 19.2989 17.2584 19.0592 17.9768 19.7373C18.6954 20.4151 18.8288 22.3008 16.9921 22.8088C15.1553 23.3169 13.3365 22.5231 13.1385 21.3955M15.7834 14.6523V15.6659M15.7834 22.9651V23.9827" stroke="#0F110F" stroke-width="1.99937" stroke-linecap="round" stroke-linejoin="round"/>
</g>
<defs>
<clipPath id="clip0_26_6122">
<rect width="31.99" height="31.99" fill="white"/>
</clipPath>
</defs>
</svg>
